<svg width="104" height="105" viewBox="0 0 104 105" fill="none" xmlns="http://www.w3.org/2000/svg">
<path fill-rule="evenodd" clip-rule="evenodd" d="M75.0741 7.67173C50.3376 -5.09021 19.9391 4.61708 7.17716 29.3536C-5.58478 54.0901 4.12251 84.4886 28.859 97.2505C53.5955 110.012 83.994 100.305 96.7559 75.5687C109.518 50.8322 99.8106 20.4337 75.0741 7.67173ZM6.41153 28.9586C19.3916 3.79924 50.3097 -6.07399 75.4691 6.9061C100.628 19.8862 110.502 50.8043 97.5216 75.9636C84.5415 101.123 53.6233 110.996 28.464 98.0161C3.30466 85.036 -6.56857 54.1179 6.41153 28.9586ZM52.2224 32.2354L60.1224 16.9228L60.8881 17.3178L52.9881 32.6304L52.2224 32.2354ZM67.535 40.1354L75.4351 24.8228L76.2007 25.2178L68.3007 40.5304L67.535 40.1354ZM14.0678 32.9086C3.26927 53.8395 11.4831 79.5613 32.414 90.3598C53.3449 101.158 79.0667 92.9445 89.8652 72.0136L90.6309 72.4086C79.6142 93.7624 53.3727 102.142 32.019 91.1254C10.6653 80.1087 2.28548 53.8673 13.3022 32.5136L14.0678 32.9086Z" fill="#55FF00" stroke="#55FF00"/>
</svg>
