<svg width="216" height="47" viewBox="0 0 216 47" fill="none" xmlns="http://www.w3.org/2000/svg">
<g clip-path="url(#clip0_2_242)">
<path d="M17.2587 11.048H12.2911C12.0528 11.048 11.864 11.2405 11.864 11.4835V32.9385C11.864 33.1815 12.0573 33.3741 12.2911 33.3741C12.5294 33.3741 12.7182 33.1769 12.7182 32.9385V11.919H16.8272V28.6384C16.8272 28.8813 17.0205 29.0739 17.2542 29.0739H26.8299V32.4984H15.0829C14.8446 32.4984 14.6558 32.6956 14.6558 32.9385C14.6558 33.1815 14.8491 33.3741 15.0829 33.3741H27.2614C27.4952 33.3741 27.6885 33.1769 27.6885 32.9385V28.6384C27.6885 28.3954 27.4952 28.1983 27.2614 28.1983H17.6858V11.4835C17.6858 11.2405 17.4925 11.048 17.2587 11.048Z" fill="#55FF00"/>
<path d="M17.2587 11.048H12.2911C12.0528 11.048 11.864 11.2405 11.864 11.4835V32.9385C11.864 33.1815 12.0573 33.3741 12.2911 33.3741C12.5294 33.3741 12.7182 33.1769 12.7182 32.9385V11.919H16.8272V28.6384C16.8272 28.8813 17.0205 29.0739 17.2542 29.0739H26.8299V32.4984H15.0829C14.8446 32.4984 14.6558 32.6956 14.6558 32.9385C14.6558 33.1815 14.8491 33.3741 15.0829 33.3741H27.2614C27.4952 33.3741 27.6885 33.1769 27.6885 32.9385V28.6384C27.6885 28.3954 27.4952 28.1983 27.2614 28.1983H17.6858V11.4835C17.6858 11.2405 17.4925 11.048 17.2587 11.048Z" stroke="#55FF00" stroke-miterlimit="10"/>
<path d="M33.4473 13.5373C33.2091 13.5373 33.0203 13.7345 33.0203 13.9774V32.9432C33.0203 33.1861 33.2136 33.3833 33.4473 33.3833H49.2988C49.5371 33.3833 49.7259 33.1861 49.7259 32.9432V28.9639C49.7259 28.7209 49.5326 28.5284 49.2988 28.5284H38.3925V24.4253H48.2469C48.4806 24.4253 48.6739 24.2282 48.6739 23.9898V19.8363C48.6739 19.5933 48.4806 19.4008 48.2469 19.4008H38.1857V15.4261H49.2988C49.5371 15.4261 49.7259 15.229 49.7259 14.986V11.4927C49.7259 11.2497 49.5326 11.0572 49.2988 11.0572H33.4473C33.2091 11.0572 33.0203 11.2543 33.0203 11.4927C33.0203 11.7357 33.2136 11.9282 33.4473 11.9282H48.8672V14.5505H37.7541C37.5204 14.5505 37.327 14.7476 37.327 14.986V19.8363C37.327 20.0793 37.5204 20.2764 37.7541 20.2764H47.8198V23.5543H37.9654C37.7272 23.5543 37.5383 23.7514 37.5383 23.9898V28.9685C37.5383 29.2114 37.7316 29.4086 37.9654 29.4086H48.8717V32.5122H33.8789V13.9728C33.8789 13.7299 33.6856 13.5373 33.4473 13.5373Z" fill="#55FF00"/>
<path d="M33.4473 13.5373C33.2091 13.5373 33.0203 13.7345 33.0203 13.9774V32.9432C33.0203 33.1861 33.2136 33.3833 33.4473 33.3833H49.2988C49.5371 33.3833 49.7259 33.1861 49.7259 32.9432V28.9639C49.7259 28.7209 49.5326 28.5284 49.2988 28.5284H38.3925V24.4253H48.2469C48.4806 24.4253 48.6739 24.2282 48.6739 23.9898V19.8363C48.6739 19.5933 48.4806 19.4008 48.2469 19.4008H38.1857V15.4261H49.2988C49.5371 15.4261 49.7259 15.229 49.7259 14.986V11.4927C49.7259 11.2497 49.5326 11.0572 49.2988 11.0572H33.4473C33.2091 11.0572 33.0203 11.2543 33.0203 11.4927C33.0203 11.7357 33.2136 11.9282 33.4473 11.9282H48.8672V14.5505H37.7541C37.5204 14.5505 37.327 14.7476 37.327 14.986V19.8363C37.327 20.0793 37.5204 20.2764 37.7541 20.2764H47.8198V23.5543H37.9654C37.7272 23.5543 37.5383 23.7514 37.5383 23.9898V28.9685C37.5383 29.2114 37.7316 29.4086 37.9654 29.4086H48.8717V32.5122H33.8789V13.9728C33.8789 13.7299 33.6856 13.5373 33.4473 13.5373Z" stroke="#55FF00" stroke-miterlimit="10"/>
<path d="M62.2148 28.8584L62.2103 28.863L62.2148 28.8584ZM69.4347 28.8676V28.863V28.8676ZM68.3108 11.699C68.3108 11.7036 68.3108 11.7036 68.3153 11.7081C68.3108 11.7081 68.3108 11.7036 68.3108 11.699ZM63.2623 11.7081V11.7036V11.7081ZM61.4056 28.5604L59.994 32.4985H57.7956C57.5573 32.4985 57.3685 32.6956 57.3685 32.934C57.3685 33.1769 57.5618 33.3741 57.7956 33.3741H60.2907C60.4705 33.3741 60.6323 33.2595 60.6908 33.0853L62.1294 29.0693H69.5066L70.9183 33.0119C70.9947 33.2274 71.2015 33.3695 71.4218 33.3695H75.7375C75.9129 33.3695 76.0747 33.2824 76.1736 33.1403C76.277 32.9982 76.304 32.8102 76.2455 32.6406L69.1155 11.4147C69.0436 11.1901 68.8413 11.0388 68.603 11.0388H62.9521C62.7228 11.0388 62.516 11.1855 62.4441 11.4056L54.9859 32.7873C54.9049 33.0165 55.0218 33.264 55.2466 33.3466C55.2961 33.3649 55.341 33.3741 55.3905 33.3741C55.5658 33.3741 55.7321 33.264 55.7951 33.0807L63.1813 11.9144H68.3783L75.2925 32.4985H71.6465L70.2394 28.565C70.163 28.345 69.9607 28.1983 69.7314 28.1983H61.9091C61.6843 28.2029 61.482 28.3496 61.4056 28.5604Z" fill="#55FF00"/>
<path d="M62.2148 28.8584L62.2103 28.863L62.2148 28.8584ZM69.4347 28.8676V28.863V28.8676ZM68.3108 11.699C68.3108 11.7036 68.3108 11.7036 68.3153 11.7081C68.3108 11.7081 68.3108 11.7036 68.3108 11.699ZM63.2623 11.7081V11.7036V11.7081ZM61.4056 28.5604L59.994 32.4985H57.7956C57.5573 32.4985 57.3685 32.6956 57.3685 32.934C57.3685 33.1769 57.5618 33.3741 57.7956 33.3741H60.2907C60.4705 33.3741 60.6323 33.2595 60.6908 33.0853L62.1294 29.0693H69.5066L70.9183 33.0119C70.9947 33.2274 71.2015 33.3695 71.4218 33.3695H75.7375C75.9129 33.3695 76.0747 33.2824 76.1736 33.1403C76.277 32.9982 76.304 32.8102 76.2455 32.6406L69.1155 11.4147C69.0436 11.1901 68.8413 11.0388 68.603 11.0388H62.9521C62.7228 11.0388 62.516 11.1855 62.4441 11.4056L54.9859 32.7873C54.9049 33.0165 55.0218 33.264 55.2466 33.3466C55.2961 33.3649 55.341 33.3741 55.3905 33.3741C55.5658 33.3741 55.7321 33.264 55.7951 33.0807L63.1813 11.9144H68.3783L75.2925 32.4985H71.6465L70.2394 28.565C70.163 28.345 69.9607 28.1983 69.7314 28.1983H61.9091C61.6843 28.2029 61.482 28.3496 61.4056 28.5604Z" stroke="#55FF00" stroke-miterlimit="10"/>
<path d="M68.6076 24.8791C68.6705 25.0579 68.8369 25.1634 69.0077 25.1634C69.0572 25.1634 69.1066 25.1542 69.1561 25.1359C69.3808 25.0534 69.4932 24.8012 69.4078 24.5766L66.1575 15.6049C66.0766 15.3848 65.8473 15.2244 65.6405 15.2473C65.4112 15.2519 65.2089 15.4032 65.1415 15.6278L62.3138 24.4482C62.2598 24.6178 62.2868 24.8012 62.3902 24.9433C62.4891 25.0854 62.6554 25.1726 62.8263 25.1726H66.4632C66.697 25.1726 66.8903 24.9754 66.8903 24.737C66.8903 24.4941 66.697 24.3015 66.4632 24.3015H63.2668L65.672 16.7922L68.6076 24.8791Z" fill="#55FF00"/>
<path d="M68.6076 24.8791C68.6705 25.0579 68.8369 25.1634 69.0077 25.1634C69.0572 25.1634 69.1066 25.1542 69.1561 25.1359C69.3808 25.0534 69.4932 24.8012 69.4078 24.5766L66.1575 15.6049C66.0766 15.3848 65.8473 15.2244 65.6405 15.2473C65.4112 15.2519 65.2089 15.4032 65.1415 15.6278L62.3138 24.4482C62.2598 24.6178 62.2868 24.8012 62.3902 24.9433C62.4891 25.0854 62.6554 25.1726 62.8263 25.1726H66.4632C66.697 25.1726 66.8903 24.9754 66.8903 24.737C66.8903 24.4941 66.697 24.3015 66.4632 24.3015H63.2668L65.672 16.7922L68.6076 24.8791Z" stroke="#55FF00" stroke-miterlimit="10"/>
<path d="M81.9459 11.048C81.7076 11.048 81.5188 11.2405 81.5188 11.4835V32.7598C81.5188 33.099 81.7885 33.3741 82.1212 33.3741H89.4895C96.3318 33.3741 101.106 28.6613 101.106 21.9085C101.106 15.174 94.592 11.0434 89.9211 11.0434H84.5848C84.3465 11.0434 84.1577 11.2359 84.1577 11.4789C84.1577 11.7219 84.351 11.9144 84.5848 11.9144H89.9211C94.2324 11.9144 100.247 15.7149 100.247 21.9085C100.247 28.2441 95.9227 32.4985 89.4895 32.4985H82.373V11.4835C82.3775 11.2405 82.1841 11.048 81.9459 11.048Z" fill="#55FF00"/>
<path d="M90.5818 28.2028H89.1747C88.9365 28.2028 88.7431 28.4 88.7431 28.6384C88.7431 28.8813 88.9365 29.0739 89.1747 29.0739H90.5818C93.1308 29.0739 96.6869 26.5295 96.6869 22.3898C96.6869 18.2409 94.0839 15.3436 90.3526 15.3436H86.5448C86.2121 15.3436 85.9424 15.6186 85.9424 15.9579V28.5513C85.9424 28.7942 86.1357 28.9914 86.3695 28.9914C86.6077 28.9914 86.801 28.7942 86.801 28.5513V16.2192H90.3571C93.6299 16.2192 95.8327 18.6994 95.8327 22.3898C95.8282 26.2591 92.4655 28.2028 90.5818 28.2028Z" fill="#55FF00"/>
<path d="M81.9459 11.048C81.7076 11.048 81.5188 11.2405 81.5188 11.4835V32.7598C81.5188 33.099 81.7885 33.3741 82.1212 33.3741H89.4895C96.3318 33.3741 101.106 28.6613 101.106 21.9085C101.106 15.174 94.592 11.0434 89.9211 11.0434H84.5848C84.3465 11.0434 84.1577 11.2359 84.1577 11.4789C84.1577 11.7219 84.351 11.9144 84.5848 11.9144H89.9211C94.2324 11.9144 100.247 15.7149 100.247 21.9085C100.247 28.2441 95.9227 32.4985 89.4895 32.4985H82.373V11.4835C82.3775 11.2405 82.1841 11.048 81.9459 11.048Z" stroke="#55FF00" stroke-miterlimit="10"/>
<path d="M90.5818 28.2028H89.1747C88.9365 28.2028 88.7431 28.4 88.7431 28.6384C88.7431 28.8813 88.9365 29.0739 89.1747 29.0739H90.5818C93.1308 29.0739 96.6869 26.5295 96.6869 22.3898C96.6869 18.2409 94.0839 15.3436 90.3526 15.3436H86.5448C86.2121 15.3436 85.9424 15.6186 85.9424 15.9579V28.5513C85.9424 28.7942 86.1357 28.9914 86.3695 28.9914C86.6077 28.9914 86.801 28.7942 86.801 28.5513V16.2192H90.3571C93.6299 16.2192 95.8327 18.6994 95.8327 22.3898C95.8282 26.2591 92.4655 28.2028 90.5818 28.2028Z" stroke="#55FF00" stroke-miterlimit="10"/>
<path d="M106.402 32.9386C106.402 33.1815 106.595 33.3741 106.829 33.3741H111.549C111.788 33.3741 111.981 33.1769 111.981 32.9386V26.0436H115.281L119.466 33.1632C119.543 33.2961 119.682 33.3741 119.835 33.3741H124.829C124.982 33.3741 125.122 33.2916 125.198 33.154C125.274 33.0211 125.274 32.8514 125.198 32.7185L120.869 25.0396C121.885 24.3519 124.465 22.2615 124.465 18.7269C124.465 13.8445 121.808 11.0434 117.173 11.0434H107.085C106.847 11.0434 106.658 11.2359 106.658 11.4789V30.3209C106.658 30.5638 106.851 30.7564 107.085 30.7564C107.323 30.7564 107.512 30.5592 107.512 30.3209V11.919H117.178C122.775 11.919 123.611 16.1871 123.611 18.7269C123.611 22.3807 120.442 24.3015 120.082 24.5078C119.983 24.5628 119.911 24.6591 119.88 24.7737C119.848 24.8883 119.866 25.0075 119.92 25.1084L124.088 32.4985H120.077L115.888 25.3789C115.811 25.2459 115.672 25.168 115.519 25.168H111.549C111.311 25.168 111.122 25.3651 111.122 25.6035V32.4985H106.829C106.595 32.503 106.402 32.7002 106.402 32.9386Z" fill="#55FF00"/>
<path d="M111.271 17.5303C111.032 17.5303 110.839 17.7229 110.839 17.9659V21.748C110.839 21.991 111.032 22.1835 111.271 22.1835H115.528C118.365 22.1835 119.632 20.2856 119.632 18.406C119.632 16.2238 118.221 14.8668 115.946 14.8668H111.271C111.032 14.8668 110.839 15.0639 110.839 15.3069C110.839 15.5499 111.032 15.7424 111.271 15.7424H115.946C117.744 15.7424 118.774 16.7143 118.774 18.406C118.774 19.8088 117.92 21.3079 115.524 21.3079H111.698V17.9659C111.698 17.7229 111.504 17.5303 111.271 17.5303Z" fill="#55FF00"/>
<path d="M106.402 32.9386C106.402 33.1815 106.595 33.3741 106.829 33.3741H111.549C111.788 33.3741 111.981 33.1769 111.981 32.9386V26.0436H115.281L119.466 33.1632C119.543 33.2961 119.682 33.3741 119.835 33.3741H124.829C124.982 33.3741 125.122 33.2916 125.198 33.154C125.274 33.0211 125.274 32.8515 125.198 32.7185L120.869 25.0396C121.885 24.3519 124.465 22.2615 124.465 18.7269C124.465 13.8445 121.808 11.0434 117.173 11.0434H107.085C106.847 11.0434 106.658 11.2359 106.658 11.4789V30.3209C106.658 30.5638 106.851 30.7564 107.085 30.7564C107.323 30.7564 107.512 30.5592 107.512 30.3209V11.919H117.178C122.775 11.919 123.611 16.1871 123.611 18.7269C123.611 22.3807 120.442 24.3015 120.082 24.5078C119.983 24.5628 119.911 24.6591 119.88 24.7737C119.848 24.8883 119.866 25.0075 119.92 25.1084L124.088 32.4985H120.077L115.888 25.3789C115.811 25.2459 115.672 25.168 115.519 25.168H111.549C111.311 25.168 111.122 25.3651 111.122 25.6035V32.4985H106.829C106.595 32.503 106.402 32.7002 106.402 32.9386Z" stroke="#55FF00" stroke-miterlimit="10"/>
<path d="M111.271 17.5303C111.032 17.5303 110.839 17.7229 110.839 17.9659V21.748C110.839 21.991 111.032 22.1835 111.271 22.1835H115.528C118.365 22.1835 119.632 20.2856 119.632 18.406C119.632 16.2238 118.221 14.8668 115.946 14.8668H111.271C111.032 14.8668 110.839 15.0639 110.839 15.3069C110.839 15.5499 111.032 15.7424 111.271 15.7424H115.946C117.744 15.7424 118.774 16.7143 118.774 18.406C118.774 19.8088 117.92 21.3079 115.524 21.3079H111.698V17.9659C111.698 17.7229 111.504 17.5303 111.271 17.5303Z" stroke="#55FF00" stroke-miterlimit="10"/>
<path d="M170.32 16.0771C172.348 16.0771 174.236 17.104 175.373 18.8186C175.468 18.9607 175.639 19.0294 175.801 19.0019L180.48 18.1767C180.611 18.1538 180.723 18.0713 180.786 17.9521C180.849 17.8329 180.854 17.6908 180.8 17.567C178.965 13.3402 174.852 10.6079 170.32 10.6079C166.355 10.6079 162.727 12.6525 160.614 16.0817C158.443 19.6025 158.286 23.9302 160.178 27.9461C161.145 29.9954 162.79 31.6641 164.809 32.6452C166.607 33.5208 168.486 33.9609 170.334 33.9609C171.701 33.9609 173.045 33.7179 174.326 33.232C177.221 32.1317 179.595 29.8395 180.827 26.9467C180.881 26.8229 180.872 26.6808 180.813 26.5616C180.75 26.4424 180.638 26.3599 180.507 26.337L178.066 25.9061C177.837 25.8648 177.612 26.0253 177.572 26.2636C177.531 26.502 177.689 26.7267 177.922 26.7679L179.815 27.1026C178.624 29.5369 176.542 31.4578 174.034 32.4113C171.246 33.4749 168.109 33.2778 165.191 31.8566C163.348 30.9581 161.846 29.4361 160.965 27.5656C159.198 23.8247 159.342 19.8088 161.352 16.5447C163.307 13.3723 166.661 11.4789 170.329 11.4789C174.335 11.4789 177.99 13.7895 179.788 17.4066L175.931 18.0851C174.623 16.2696 172.55 15.1923 170.329 15.1923C167.902 15.1923 165.69 16.4484 164.413 18.5573C163.096 20.7257 163.033 23.3755 164.233 25.8281C164.782 26.9467 165.663 27.8682 166.724 28.4321C170.756 30.5684 174.407 28.7942 176.097 26.2407C176.228 26.039 176.178 25.7685 175.98 25.6356C175.787 25.5026 175.517 25.5531 175.387 25.7548C173.903 27.9966 170.68 29.5461 167.124 27.6573C166.225 27.1805 165.47 26.392 165.007 25.4385C163.941 23.2654 163.991 20.9228 165.146 19.0157C166.252 17.1819 168.194 16.0771 170.32 16.0771Z" fill="#55FF00"/>
<path d="M170.32 16.0771C172.348 16.0771 174.236 17.104 175.373 18.8186C175.468 18.9607 175.639 19.0294 175.801 19.0019L180.48 18.1767C180.611 18.1538 180.723 18.0713 180.786 17.9521C180.849 17.8329 180.854 17.6908 180.8 17.567C178.965 13.3402 174.852 10.6079 170.32 10.6079C166.355 10.6079 162.727 12.6525 160.614 16.0817C158.443 19.6025 158.286 23.9302 160.178 27.9461C161.145 29.9954 162.79 31.6641 164.809 32.6452C166.607 33.5208 168.486 33.9609 170.334 33.9609C171.701 33.9609 173.045 33.7179 174.326 33.232C177.221 32.1317 179.595 29.8395 180.827 26.9467C180.881 26.8229 180.872 26.6808 180.813 26.5616C180.75 26.4424 180.638 26.3599 180.507 26.337L178.066 25.9061C177.837 25.8648 177.612 26.0253 177.572 26.2636C177.531 26.502 177.689 26.7267 177.922 26.7679L179.815 27.1026C178.624 29.5369 176.542 31.4578 174.034 32.4113C171.246 33.4749 168.109 33.2778 165.191 31.8566C163.348 30.9581 161.846 29.4361 160.965 27.5656C159.198 23.8247 159.342 19.8088 161.352 16.5447C163.307 13.3723 166.661 11.4789 170.329 11.4789C174.335 11.4789 177.99 13.7895 179.788 17.4066L175.931 18.0851C174.623 16.2696 172.55 15.1923 170.329 15.1923C167.902 15.1923 165.69 16.4484 164.413 18.5573C163.096 20.7257 163.033 23.3755 164.233 25.8281C164.782 26.9467 165.663 27.8682 166.724 28.4321C170.756 30.5684 174.407 28.7942 176.097 26.2407C176.228 26.039 176.178 25.7685 175.98 25.6356C175.787 25.5026 175.517 25.5531 175.387 25.7548C173.903 27.9966 170.68 29.5461 167.124 27.6573C166.225 27.1805 165.47 26.392 165.007 25.4385C163.941 23.2654 163.991 20.9228 165.146 19.0157C166.252 17.1819 168.194 16.0771 170.32 16.0771Z" stroke="#55FF00" stroke-miterlimit="10"/>
<path d="M190.906 10.6125H186.181C185.947 10.6125 185.754 10.805 185.754 11.048C185.754 11.291 185.947 11.4835 186.181 11.4835H190.479V19.6529C190.479 19.8959 190.672 20.0884 190.906 20.0884H194.372C194.529 20.0884 194.677 19.9968 194.749 19.8546L199.168 11.2772H203.403L197.501 22.0277C197.424 22.1606 197.429 22.3302 197.505 22.4632L203.385 32.6727H199.407L194.304 24.1456C194.228 24.0173 194.088 23.9348 193.94 23.9348H190.901C190.663 23.9348 190.474 24.1319 190.474 24.3749V32.6727H186.815V13.9728C186.815 13.7299 186.621 13.5373 186.388 13.5373C186.154 13.5373 185.96 13.7344 185.96 13.9728V33.1082C185.96 33.3512 186.154 33.5437 186.388 33.5437H190.906C191.144 33.5437 191.337 33.3466 191.337 33.1082V24.8104H193.702L198.804 33.3374C198.881 33.4658 199.02 33.5483 199.168 33.5483H204.136C204.289 33.5483 204.433 33.4658 204.509 33.3282C204.586 33.1907 204.586 33.0257 204.505 32.8881L198.368 22.2339L204.509 11.0526C204.586 10.915 204.581 10.75 204.505 10.617C204.428 10.4841 204.284 10.4016 204.136 10.4016H198.908C198.75 10.4016 198.602 10.4933 198.53 10.6354L194.111 19.2128H191.333V11.048C191.337 10.805 191.144 10.6125 190.906 10.6125Z" fill="#55FF00"/>
<path d="M190.906 10.6125H186.181C185.947 10.6125 185.754 10.805 185.754 11.048C185.754 11.291 185.947 11.4835 186.181 11.4835H190.479V19.6529C190.479 19.8959 190.672 20.0884 190.906 20.0884H194.372C194.529 20.0884 194.677 19.9968 194.749 19.8546L199.168 11.2772H203.403L197.501 22.0277C197.424 22.1606 197.429 22.3302 197.505 22.4632L203.385 32.6727H199.407L194.304 24.1456C194.228 24.0173 194.088 23.9348 193.94 23.9348H190.901C190.663 23.9348 190.474 24.1319 190.474 24.3749V32.6727H186.815V13.9728C186.815 13.7299 186.621 13.5373 186.388 13.5373C186.154 13.5373 185.96 13.7344 185.96 13.9728V33.1082C185.96 33.3511 186.154 33.5437 186.388 33.5437H190.906C191.144 33.5437 191.337 33.3466 191.337 33.1082V24.8104H193.702L198.804 33.3374C198.881 33.4658 199.02 33.5483 199.168 33.5483H204.136C204.289 33.5483 204.433 33.4658 204.509 33.3282C204.586 33.1907 204.586 33.0257 204.505 32.8881L198.368 22.2339L204.509 11.0526C204.586 10.915 204.581 10.75 204.505 10.617C204.428 10.4841 204.284 10.4016 204.136 10.4016H198.908C198.75 10.4016 198.602 10.4933 198.53 10.6354L194.111 19.2128H191.333V11.048C191.337 10.805 191.144 10.6125 190.906 10.6125Z" stroke="#55FF00" stroke-miterlimit="10"/>
<path d="M142.012 28.5054C139.107 28.5054 136.594 26.4012 136.037 23.4992C135.988 23.2609 135.758 23.1096 135.533 23.1554C135.304 23.2013 135.151 23.4305 135.196 23.6689C135.835 26.9788 138.703 29.3765 142.016 29.3765C145.851 29.3765 148.966 26.1949 148.966 22.289C148.966 18.3785 145.846 15.1969 142.016 15.1969C138.703 15.1969 135.839 17.5991 135.196 20.9045C135.151 21.1429 135.304 21.3721 135.533 21.4179C135.767 21.4638 135.992 21.3125 136.037 21.0741C136.599 18.1722 139.112 16.0679 142.012 16.0679C145.37 16.0679 148.103 18.8552 148.103 22.2844C148.103 25.7181 145.37 28.5054 142.012 28.5054Z" fill="#55FF00"/>
<path d="M152.531 21.0466C152.558 21.285 152.77 21.4592 153.008 21.4317C153.246 21.4042 153.412 21.1887 153.386 20.9457C152.725 15.0548 147.833 10.6079 142.012 10.6079C135.695 10.6079 130.557 15.8479 130.557 22.289C130.557 28.7301 135.695 33.97 142.012 33.97C147.833 33.97 152.72 29.5278 153.386 23.6322C153.412 23.3938 153.246 23.1738 153.008 23.1462C152.77 23.1233 152.563 23.2884 152.531 23.5313C151.92 28.9822 147.393 33.0898 142.012 33.0898C136.172 33.0898 131.416 28.2395 131.416 22.2844C131.416 16.3246 136.172 11.4789 142.012 11.4789C147.393 11.4881 151.915 15.5957 152.531 21.0466Z" fill="#55FF00"/>
<path d="M142.012 28.5054C139.107 28.5054 136.594 26.4012 136.037 23.4992C135.988 23.2609 135.758 23.1096 135.533 23.1554C135.304 23.2013 135.151 23.4305 135.196 23.6689C135.835 26.9788 138.703 29.3765 142.016 29.3765C145.851 29.3765 148.966 26.1949 148.966 22.289C148.966 18.3785 145.846 15.1969 142.016 15.1969C138.703 15.1969 135.839 17.5991 135.196 20.9045C135.151 21.1429 135.304 21.3721 135.533 21.4179C135.767 21.4638 135.992 21.3125 136.037 21.0741C136.599 18.1722 139.112 16.0679 142.012 16.0679C145.37 16.0679 148.103 18.8552 148.103 22.2844C148.103 25.7181 145.37 28.5054 142.012 28.5054Z" stroke="#55FF00" stroke-miterlimit="10"/>
<path d="M152.531 21.0466C152.558 21.285 152.77 21.4592 153.008 21.4317C153.246 21.4042 153.412 21.1887 153.386 20.9457C152.725 15.0548 147.833 10.6079 142.012 10.6079C135.695 10.6079 130.557 15.8479 130.557 22.289C130.557 28.7301 135.695 33.97 142.012 33.97C147.833 33.97 152.72 29.5278 153.386 23.6322C153.412 23.3938 153.246 23.1738 153.008 23.1462C152.77 23.1233 152.563 23.2884 152.531 23.5313C151.92 28.9822 147.393 33.0898 142.012 33.0898C136.172 33.0898 131.416 28.2395 131.416 22.2844C131.416 16.3246 136.172 11.4789 142.012 11.4789C147.393 11.4881 151.915 15.5957 152.531 21.0466Z" stroke="#55FF00" stroke-miterlimit="10"/>
<path d="M50.2879 45.0047L49.9507 46.0454H48.6785L50.5891 40.5945H51.8614L53.772 46.0454H52.4997L52.1626 45.0047H50.2879ZM51.8164 43.9228L51.223 42.1074L50.6296 43.9228H51.8164Z" fill="#55FF00"/>
<path d="M54.4868 40.59H58.1777V41.8002H55.7186V42.9234H57.7147V44.1383H55.7186V46.0408H54.4868V40.59Z" fill="#55FF00"/>
<path d="M59.1577 40.59H62.8486V41.8002H60.3895V42.9234H62.3856V44.1383H60.3895V46.0408H59.1577V40.59Z" fill="#55FF00"/>
<path d="M65.056 46.0408H63.8242V40.59H65.056V46.0408Z" fill="#55FF00"/>
<path d="M66.3281 40.59H67.5599V44.8305H69.9786V46.0408H66.3281V40.59Z" fill="#55FF00"/>
<path d="M72.0555 46.0408H70.8237V40.59H72.0555V46.0408Z" fill="#55FF00"/>
<path d="M74.3887 45.0047L74.0516 46.0454H72.7793L74.6899 40.5945H75.9622L77.8728 46.0454H76.6006L76.2634 45.0047H74.3887ZM75.9172 43.9228L75.3238 42.1074L74.7304 43.9228H75.9172Z" fill="#55FF00"/>
<path d="M80.5838 46.0408H79.352V41.8002H77.8235V40.59H82.1078V41.8002H80.5793V46.0408H80.5838Z" fill="#55FF00"/>
<path d="M82.9619 40.59H86.7832V41.8002H84.1937V42.6667H86.5719V43.877H84.1937V44.8305H86.8686V46.0408H82.9664V40.59H82.9619Z" fill="#55FF00"/>
<path d="M91.4495 46.0408L90.8965 45.4769C90.7796 45.5961 90.6403 45.7062 90.4874 45.807C90.357 45.8895 90.1952 45.9629 90.0019 46.0271C89.8086 46.0913 89.5838 46.1279 89.3275 46.1279C89.0713 46.1279 88.8465 46.0913 88.6442 46.0179C88.4419 45.9446 88.2756 45.8483 88.1407 45.7245C88.0058 45.6007 87.9024 45.454 87.826 45.289C87.7541 45.1239 87.7136 44.9406 87.7136 44.7434C87.7136 44.4959 87.7631 44.2758 87.862 44.0879C87.9609 43.8953 88.0733 43.7394 88.1991 43.6111C88.3475 43.4598 88.5093 43.336 88.6892 43.2306L88.4329 42.928C88.397 42.8867 88.3565 42.8363 88.307 42.7721C88.2576 42.708 88.2081 42.6346 88.1677 42.5521C88.1272 42.4696 88.0868 42.3733 88.0553 42.2633C88.0238 42.1532 88.0103 42.0295 88.0103 41.8919C88.0103 41.7177 88.0463 41.5527 88.1227 41.3922C88.1991 41.2318 88.3025 41.0897 88.4329 40.9659C88.5633 40.8421 88.7206 40.7412 88.9005 40.6679C89.0803 40.5945 89.2781 40.5533 89.4939 40.5533C89.7052 40.5533 89.8985 40.59 90.0828 40.6679C90.2671 40.7412 90.4245 40.8421 90.5548 40.9659C90.6852 41.0897 90.7886 41.2318 90.865 41.3922C90.9415 41.5527 90.9774 41.7223 90.9774 41.8919C90.9774 42.0295 90.9594 42.1532 90.928 42.2633C90.892 42.3733 90.8515 42.4696 90.8066 42.5475C90.7571 42.63 90.7077 42.6942 90.6537 42.7492C90.5998 42.8042 90.5548 42.8501 90.5144 42.8822L90.0918 43.226L90.7706 43.9182L91.1527 43.3544H92.47L91.5349 44.6976L92.8521 46.0408H91.4495ZM89.4534 45.0047C89.5478 45.0047 89.6377 44.9864 89.7142 44.9543C89.7906 44.9176 89.858 44.881 89.912 44.8351C89.9749 44.7847 90.0333 44.7251 90.0918 44.6609L89.3275 43.8816C89.2556 43.9412 89.1882 44.0008 89.1342 44.0649C89.0893 44.1245 89.0443 44.1887 89.0084 44.2667C88.9679 44.3446 88.9499 44.4317 88.9499 44.5326C88.9499 44.6655 88.9994 44.7801 89.0938 44.8718C89.1837 44.9543 89.3051 45.0047 89.4534 45.0047ZM89.4534 42.6209C89.6018 42.5108 89.7142 42.41 89.7951 42.3137C89.876 42.2174 89.9165 42.1028 89.9165 41.9699C89.9165 41.8186 89.8805 41.704 89.8041 41.6215C89.7276 41.5389 89.6243 41.4977 89.4939 41.4977C89.3635 41.4977 89.2601 41.5389 89.1837 41.6215C89.1073 41.704 89.0713 41.8232 89.0713 41.9699C89.0713 42.1028 89.1073 42.2174 89.1837 42.3137C89.2556 42.41 89.3455 42.5154 89.4534 42.6209Z" fill="#55FF00"/>
<path d="M92.9736 42.1028C92.9736 41.8965 93.0186 41.6994 93.104 41.5114C93.1939 41.3235 93.3198 41.1584 93.4816 41.0163C93.648 40.8742 93.8458 40.7596 94.0795 40.6725C94.3133 40.5854 94.5831 40.5441 94.8798 40.5441C95.1675 40.5441 95.4282 40.5854 95.6575 40.6725C95.8868 40.7596 96.0801 40.8788 96.2419 41.0347C96.4038 41.1905 96.5252 41.3739 96.6151 41.5848C96.705 41.7957 96.7454 42.0249 96.7454 42.2725L95.5586 42.3596C95.5586 42.1395 95.5002 41.9699 95.3788 41.8507C95.2619 41.7315 95.0911 41.6673 94.8798 41.6673C94.6865 41.6673 94.5336 41.7223 94.4167 41.8278C94.2998 41.9332 94.2414 42.0524 94.2414 42.1853C94.2414 42.3183 94.3043 42.4192 94.4347 42.4879C94.5651 42.5567 94.7269 42.6209 94.9202 42.6805C95.1135 42.7401 95.3248 42.8042 95.5541 42.873C95.7789 42.9418 95.9902 43.0426 96.188 43.1664C96.3813 43.2948 96.5476 43.4598 96.6735 43.6707C96.7994 43.8816 96.8668 44.1475 96.8668 44.473C96.8668 44.693 96.8219 44.8993 96.7364 45.0919C96.651 45.2844 96.5207 45.454 96.3498 45.5961C96.179 45.7429 95.9722 45.8575 95.7204 45.9446C95.4732 46.0317 95.19 46.0729 94.8708 46.0729C94.5651 46.0729 94.2908 46.0317 94.0481 45.9446C93.8053 45.8575 93.5985 45.7337 93.4322 45.5778C93.2658 45.4174 93.14 45.234 93.05 45.0139C92.9601 44.7985 92.9197 44.5601 92.9197 44.2988L94.1065 44.2117C94.1065 44.7022 94.3628 44.9452 94.8708 44.9452C95.109 44.9452 95.2889 44.8902 95.4102 44.7755C95.5316 44.6609 95.5946 44.5326 95.5946 44.3813C95.5946 44.2437 95.5316 44.1383 95.4013 44.0604C95.2709 43.987 95.109 43.9183 94.9112 43.8541C94.7134 43.7899 94.5066 43.7257 94.2774 43.6569C94.0526 43.5882 93.8413 43.4919 93.6435 43.3681C93.4502 43.2443 93.2838 43.0793 93.1535 42.8776C93.0231 42.6759 92.9736 42.4283 92.9736 42.1028Z" fill="#55FF00"/>
<path d="M97.8962 40.59H101.717V41.8002H99.128V42.6667H101.506V43.877H99.128V44.8305H101.803V46.0408H97.9007V40.59H97.8962Z" fill="#55FF00"/>
<path d="M105.071 40.59C105.35 40.59 105.602 40.6358 105.831 40.7275C106.06 40.8192 106.258 40.943 106.42 41.0988C106.582 41.2547 106.712 41.4381 106.802 41.649C106.892 41.8598 106.937 42.0845 106.937 42.3183C106.937 42.6254 106.883 42.8822 106.78 43.0885C106.676 43.2948 106.559 43.4644 106.433 43.5928C106.307 43.7211 106.137 43.8449 105.921 43.9595L107.108 46.0362H105.75L104.774 44.2208H104.136V46.0362H102.904V40.59H105.071ZM105.071 43.0105C105.287 43.0105 105.453 42.9509 105.57 42.8363C105.687 42.7217 105.75 42.575 105.75 42.4054C105.75 42.2358 105.692 42.0891 105.57 41.9745C105.453 41.8598 105.282 41.8002 105.071 41.8002H104.136V43.0105H105.071Z" fill="#55FF00"/>
<path d="M112.368 40.59L110.542 46.0408H109.27L107.445 40.59H108.717L109.904 44.3538L111.091 40.59H112.368Z" fill="#55FF00"/>
<path d="M114.404 46.0408H113.172V40.59H114.404V46.0408Z" fill="#55FF00"/>
<path d="M118.054 44.8718C118.392 44.8718 118.661 44.7893 118.855 44.6243C119.048 44.4592 119.178 44.2667 119.241 44.0512L120.514 44.1383C120.451 44.3996 120.352 44.6472 120.208 44.881C120.064 45.1194 119.889 45.3257 119.682 45.4999C119.475 45.6741 119.232 45.8162 118.958 45.9216C118.684 46.0271 118.383 46.0821 118.054 46.0821C117.69 46.0821 117.353 46.0133 117.029 45.8712C116.706 45.7291 116.432 45.532 116.193 45.2844C115.955 45.0323 115.766 44.7389 115.631 44.4042C115.492 44.0695 115.425 43.7074 115.425 43.3131C115.425 42.928 115.492 42.5659 115.631 42.2266C115.771 41.8874 115.96 41.594 116.193 41.3418C116.427 41.0897 116.71 40.8925 117.029 40.755C117.349 40.6129 117.69 40.5441 118.054 40.5441C118.369 40.5441 118.666 40.5991 118.931 40.7046C119.201 40.81 119.439 40.9521 119.646 41.1309C119.853 41.3051 120.028 41.5114 120.167 41.7498C120.307 41.9882 120.41 42.2358 120.473 42.4925L119.201 42.5796C119.165 42.4696 119.12 42.3641 119.057 42.2679C118.994 42.1716 118.913 42.0845 118.819 42.0066C118.724 41.9332 118.612 41.869 118.482 41.8232C118.351 41.7773 118.212 41.7544 118.054 41.7544C117.861 41.7544 117.681 41.7911 117.511 41.869C117.34 41.947 117.191 42.057 117.065 42.1945C116.94 42.332 116.836 42.4971 116.764 42.6896C116.692 42.8822 116.652 43.0885 116.652 43.3131C116.652 43.5377 116.688 43.744 116.764 43.9366C116.836 44.1291 116.94 44.2896 117.065 44.4317C117.191 44.5692 117.34 44.6793 117.511 44.7572C117.681 44.8351 117.861 44.8718 118.054 44.8718Z" fill="#55FF00"/>
<path d="M121.449 40.59H125.27V41.8002H122.681V42.6667H125.059V43.877H122.681V44.8305H125.355V46.0408H121.453V40.59H121.449Z" fill="#55FF00"/>
<path d="M133.16 40.59V46.0408H132.058L129.896 42.8409V46.0408H128.664V40.59H129.766L131.928 43.7899V40.59H133.16Z" fill="#55FF00"/>
<path d="M134.432 40.59H138.253V41.8002H135.664V42.6667H138.042V43.877H135.664V44.8305H138.339V46.0408H134.436V40.59H134.432Z" fill="#55FF00"/>
<path d="M141.773 46.0408H140.541V41.8002H139.013V40.59H143.297V41.8002H141.769V46.0408H141.773Z" fill="#55FF00"/>
<path d="M146.314 46.0408H145.379L143.679 40.59H144.866L145.887 43.9641L146.903 40.59H147.667L148.688 43.9641L149.708 40.59H150.895L149.196 46.0408H148.26L147.285 42.8409L146.314 46.0408Z" fill="#55FF00"/>
<path d="M156.627 43.3131C156.627 43.7074 156.559 44.0695 156.42 44.4042C156.281 44.7389 156.092 45.0323 155.858 45.2844C155.62 45.5366 155.341 45.7291 155.022 45.8712C154.703 46.0133 154.361 46.0821 154.001 46.0821C153.637 46.0821 153.3 46.0133 152.976 45.8712C152.653 45.7291 152.378 45.532 152.14 45.2844C151.902 45.0323 151.713 44.7389 151.578 44.4042C151.439 44.0695 151.371 43.7074 151.371 43.3131C151.371 42.928 151.439 42.5659 151.578 42.2266C151.718 41.8874 151.906 41.594 152.14 41.3418C152.374 41.0897 152.657 40.8925 152.976 40.755C153.295 40.6129 153.637 40.5441 154.001 40.5441C154.361 40.5441 154.703 40.6129 155.022 40.755C155.341 40.8971 155.62 41.0943 155.858 41.3418C156.096 41.5894 156.285 41.8874 156.42 42.2266C156.555 42.5659 156.627 42.928 156.627 43.3131ZM155.395 43.3131C155.395 43.0885 155.359 42.8822 155.283 42.6896C155.211 42.4971 155.107 42.3366 154.981 42.1945C154.855 42.0524 154.707 41.947 154.536 41.869C154.365 41.7911 154.186 41.7544 153.992 41.7544C153.799 41.7544 153.619 41.7911 153.448 41.869C153.277 41.947 153.129 42.057 153.003 42.1945C152.877 42.332 152.774 42.4971 152.702 42.6896C152.63 42.8822 152.59 43.0885 152.59 43.3131C152.59 43.5377 152.626 43.744 152.702 43.9366C152.774 44.1291 152.877 44.2896 153.003 44.4317C153.129 44.5692 153.277 44.6793 153.448 44.7572C153.619 44.8351 153.799 44.8718 153.992 44.8718C154.186 44.8718 154.365 44.8351 154.536 44.7572C154.707 44.6793 154.855 44.5692 154.981 44.4317C155.107 44.2942 155.211 44.1291 155.283 43.9366C155.359 43.7486 155.395 43.5423 155.395 43.3131Z" fill="#55FF00"/>
<path d="M159.81 40.59C160.088 40.59 160.34 40.6358 160.569 40.7275C160.799 40.8192 160.997 40.943 161.158 41.0988C161.32 41.2547 161.451 41.4381 161.541 41.649C161.63 41.8598 161.675 42.0845 161.675 42.3183C161.675 42.6254 161.621 42.8822 161.518 43.0885C161.415 43.2948 161.298 43.4644 161.172 43.5928C161.046 43.7211 160.875 43.8449 160.659 43.9595L161.846 46.0362H160.489L159.513 44.2208H158.875V46.0362H157.643V40.59H159.81ZM159.81 43.0105C160.025 43.0105 160.192 42.9509 160.309 42.8363C160.426 42.7217 160.489 42.575 160.489 42.4054C160.489 42.2358 160.43 42.0891 160.309 41.9745C160.192 41.8598 160.021 41.8002 159.81 41.8002H158.875V43.0105H159.81Z" fill="#55FF00"/>
<path d="M165.708 46.0408L163.968 43.6157V46.0408H162.736V40.59H163.968V42.928L165.582 40.59H166.98L165.096 43.2718L167.106 46.0408H165.708Z" fill="#55FF00"/>
<path d="M0.73291 41.0301V0.875183H215.272V43.9412H173.494" stroke="#55FF00" stroke-width="2" stroke-miterlimit="10" stroke-linecap="round" stroke-linejoin="round"/>
<path d="M42.8612 43.9412H0.73291" stroke="#55FF00" stroke-width="2" stroke-miterlimit="10" stroke-linecap="round" stroke-linejoin="round"/>
</g>
<defs>
<clipPath id="clip0_2_242">
<rect width="216" height="46" fill="white" transform="translate(0 0.12793)"/>
</clipPath>
</defs>
</svg>
