<svg width="197" height="196" viewBox="0 0 197 196" fill="none" xmlns="http://www.w3.org/2000/svg">
<path d="M16.9239 89.563L34.0235 89.9796L33.9588 92.1419L18.7708 91.7744L18.5511 100.168L33.7391 100.535L33.7087 102.739L16.6091 102.322L16.9239 89.563Z" fill="#55FF00"/>
<path d="M19.625 76.3475C20.4072 73.4507 23.3859 71.7214 26.149 72.4609C28.9121 73.2005 30.6648 76.1742 29.888 79.0944L28.9554 82.6186L35.2423 84.291L34.6712 86.3983L18.1214 81.979L19.625 76.3475ZM28.0423 78.5858C28.5077 76.8733 27.4416 75.048 25.5725 74.5448C23.7322 74.0596 21.9073 75.1257 21.4652 76.8328L20.5327 80.3569L27.1097 82.1099L28.0423 78.5858Z" fill="#55FF00"/>
<path d="M41.8135 67.238C39.8111 70.9369 34.6324 72.4374 30.3388 70.104C26.0451 67.7706 24.4976 62.602 26.5234 58.8976C28.5258 55.1988 33.7045 53.6982 37.9982 56.0316C42.2918 58.365 43.8447 63.5571 41.8135 67.238ZM40.1491 66.3417C41.5858 63.7122 40.4369 59.833 36.9638 57.9505C33.4906 56.068 29.6354 57.2113 28.1987 59.8408C26.762 62.4703 27.9055 66.3261 31.3552 68.214C34.8517 70.0911 38.7358 68.9657 40.1491 66.3417Z" fill="#55FF00"/>
<path d="M41.6156 51.6364C44.492 54.3488 48.54 54.2465 50.5756 52.0701C52.4386 50.1066 52.3515 47.6094 51.1699 45.7123L52.7542 44.0357C54.4492 46.9735 54.5816 50.6202 51.9651 53.3759C49.0752 56.442 43.6743 56.5628 40.132 53.2155C36.5897 49.8682 36.4218 44.4774 39.3116 41.4112C41.8274 38.753 45.5025 38.6387 48.5085 40.2103L46.9242 41.8868C44.9891 40.7819 42.4923 40.869 40.73 42.735C38.6655 44.8935 38.768 48.942 41.6156 51.6364Z" fill="#55FF00"/>
<path d="M59.47 28.1344L55.1727 30.9848L63.5757 43.6665L61.778 44.8497L53.375 32.168L49.0778 35.0184L48.0193 33.4382L58.4295 26.5253L59.47 28.1344Z" fill="#55FF00"/>
<path d="M75.5011 37.8573C71.5528 39.3432 66.6685 37.1225 64.9364 32.5397C63.2044 27.9569 65.419 23.0487 69.3439 21.5682C73.2922 20.0823 78.1766 22.3031 79.9086 26.8858C81.6353 31.4452 79.426 36.3769 75.5011 37.8573ZM74.8189 36.0908C77.6059 35.0231 79.2696 31.3536 77.867 27.6568C76.4643 23.96 72.8007 22.3192 70.0137 23.387C67.2267 24.4547 65.5575 28.1008 66.9367 31.803C68.3339 35.4764 72.0264 37.1352 74.8189 36.0908Z" fill="#55FF00"/>
<path d="M103.434 16.306L103.717 33.4427L101.554 33.477L101.297 18.2592L92.8871 18.3885L93.1441 33.6063L90.957 33.646L90.6788 16.5327L103.434 16.306Z" fill="#55FF00"/>
<path d="M113.815 35.5863C109.728 34.5625 106.976 29.9454 108.167 25.201C109.359 20.4566 113.97 17.6813 118.034 18.7105C122.122 19.7344 124.874 24.3515 123.682 29.0959C122.514 33.8348 117.903 36.6101 113.815 35.5863ZM114.277 33.7513C117.163 34.487 120.625 32.3983 121.586 28.5714C122.547 24.7446 120.464 21.3047 117.555 20.5744C114.646 19.8441 111.201 21.904 110.24 25.7308C109.326 29.5468 111.391 33.0155 114.277 33.7513Z" fill="#55FF00"/>
<path d="M139.827 29.7588L135.213 27.4259L128.326 40.998L126.394 40.0156L133.282 26.4436L128.691 24.1052L129.553 22.3993L140.689 28.0529L139.827 29.7588Z" fill="#55FF00"/>
<path d="M139.321 48.4862C136.083 45.8086 135.599 40.4418 138.699 36.6852C141.798 32.9286 147.153 32.399 150.421 35.0945C153.659 37.772 154.142 43.1388 151.043 46.8954C147.944 50.652 142.559 51.1637 139.321 48.4862ZM140.511 47.0247C142.806 48.9344 146.836 48.5403 149.34 45.5144C151.844 42.4886 151.455 38.482 149.16 36.5723C146.866 34.6626 142.854 35.0278 140.355 38.0771C137.856 41.1263 138.216 45.115 140.511 47.0247Z" fill="#55FF00"/>
<path d="M169.443 57.5731L170.422 59.0237L156.242 68.6151L155.036 66.8225L164.587 60.356L152.07 62.4526L151.313 61.3205L157.893 50.4607L148.342 56.9272L147.106 55.1166L161.286 45.5253L162.294 46.9939L154.501 59.962L169.443 57.5731Z" fill="#55FF00"/>
<path d="M177.384 77.0754L162.588 75.9505C159.798 75.7353 158.23 75.0388 157.65 73.3965C157.422 72.7338 157.401 71.8996 157.401 71.8996L159.066 71.3148C159.066 71.3148 159.089 71.7292 159.255 72.2335C159.617 73.2599 160.49 73.7233 161.813 73.786L163.146 73.8955L172.938 64.5349L173.745 66.8399L165.98 74.1989L176.609 74.9109L177.384 77.0754Z" fill="#55FF00"/>
<path d="M180.011 101.318L162.89 101.869L162.832 99.7109L169.226 99.5074C169.226 99.5074 167.927 97.6375 167.86 95.3331C167.759 91.926 169.854 89.6864 173.383 89.5814L179.63 89.3872L179.688 91.5457L173.441 91.7399C170.991 91.8161 169.691 93.2291 169.748 95.3876C169.812 97.5695 171.11 99.4394 171.11 99.4394L179.93 99.1653L180.011 101.318Z" fill="#55FF00"/>
<path d="M175.383 118.98L176.353 113.917L161.403 111.076L161.8 108.96L176.749 111.801L177.718 106.738L179.578 107.096L177.248 119.361L175.383 118.98Z" fill="#55FF00"/>
<path d="M157.208 123.701C158.904 119.851 163.927 117.893 168.384 119.868C172.858 121.813 174.816 126.837 173.144 130.682C171.448 134.531 166.425 136.489 161.968 134.515C157.517 132.563 155.535 127.545 157.208 123.701ZM158.967 124.476C157.774 127.197 159.245 130.977 162.846 132.558C166.446 134.14 170.196 132.65 171.39 129.929C172.583 127.209 171.141 123.447 167.517 121.871C163.911 120.266 160.155 121.732 158.967 124.476Z" fill="#55FF00"/>
<path d="M151.513 160.122L150.274 161.372L138.159 149.282L139.677 147.745L147.839 155.892L143.394 143.993L144.354 143.029L156.287 147.436L148.124 139.289L149.665 137.746L161.78 149.836L160.518 151.092L146.307 145.907L151.513 160.122Z" fill="#55FF00"/>
<path d="M121.752 158.528L123.663 157.516L131.694 172.629L129.782 173.641L121.752 158.528ZM135.415 151.278L143.446 166.391L141.487 167.414L138.445 161.655L135.328 163.318C132.693 164.721 129.392 163.687 128.04 161.163C126.717 158.657 127.722 155.338 130.363 153.959L135.415 151.278ZM137.54 159.99L134.344 153.995L131.227 155.658C129.668 156.49 129.075 158.503 129.957 160.174C130.839 161.844 132.864 162.484 134.428 161.676L137.54 159.99Z" fill="#55FF00"/>
<path d="M101.546 167.571C101.18 165.04 103.135 162.413 106.239 161.963L112.714 161.049L115.1 177.993L108.77 178.897C105.93 179.311 103.65 177.571 103.278 175.016C102.933 172.579 104.679 171.383 104.679 171.383C104.679 171.383 101.968 170.656 101.546 167.571ZM111.93 171.153L107.774 171.749C106.15 171.979 105.113 173.356 105.306 174.718C105.526 176.197 106.903 177.234 108.527 177.004L112.683 176.408L111.93 171.153ZM106.481 163.856C104.594 164.122 103.472 165.666 103.706 167.414C103.936 169.039 105.456 170.166 107.344 169.9L111.645 169.294L110.783 163.251L106.481 163.856Z" fill="#55FF00"/>
<path d="M81.8983 178.162L80.1468 177.952L82.2685 160.972L84.4038 161.241L82.9679 172.681L89.6349 161.875L90.9846 162.055L94.8087 174.148L96.2446 162.707L98.4033 162.97L96.2817 179.951L94.5301 179.741L89.8985 165.343L81.8983 178.162Z" fill="#55FF00"/>
<path d="M67.8819 157.259L68.5814 155.492L78.9082 159.68L72.5076 175.558L62.4297 171.485L63.1292 169.718L71.1682 172.982L73.2042 167.942L65.7909 164.928L66.4904 163.161L73.9038 166.175L76.1408 160.62L67.8819 157.259Z" fill="#55FF00"/>
<path d="M60.4507 160.641C62.7367 157.419 62.056 153.431 59.6065 151.705C57.3932 150.146 54.9258 150.572 53.2402 152.025L51.3498 150.688C53.9963 148.592 57.6039 147.975 60.7046 150.166C64.1336 152.602 65.0202 157.9 62.1968 161.888C59.3734 165.877 54.0585 166.792 50.6295 164.356C47.6442 162.237 47.0272 158.629 48.135 155.434L50.0254 156.771C49.1985 158.84 49.6477 161.302 51.7455 162.788C54.1951 164.514 58.1646 163.862 60.4507 160.641Z" fill="#55FF00"/>
<path d="M34.676 146.372L38.1165 150.237L49.4544 140.097L50.8913 141.713L39.5534 151.852L42.9939 155.717L41.5855 156.982L33.2496 147.666L34.676 146.372Z" fill="#55FF00"/>
<path d="M37.7716 125.833L39.4256 124.881L44.9625 134.576L30.1123 143.09L24.711 133.659L26.365 132.706L30.6839 140.242L35.3868 137.544L31.4022 130.597L33.0562 129.645L37.0408 136.591L42.244 133.604L37.7716 125.833Z" fill="#55FF00"/>
<path d="M33.8579 121.314L34.4389 122.857L22.3968 127.953L21.4592 125.406L33.8579 121.314ZM35.5446 121.563C35.2658 120.789 35.5799 120.123 36.3253 119.827C37.0995 119.548 37.7828 119.833 38.085 120.602C38.3638 121.376 38.0605 122.089 37.2863 122.367C36.5121 122.646 35.8468 122.332 35.5446 121.563Z" fill="#55FF00"/>
</svg>
